# AST/ASF file generated using VICON BodyLanguage
# -----------------------------------------------
:version 1.10
:name VICON
:units
  mass 1.0
  length 0.45
  angle deg
:documentation
   .ast/.asf automatically generated from VICON data using
   VICON BodyBuilder and BodyLanguage model FoxedUp or BRILLIANT.MOD
:root
   order TX TY TZ RX RY RZ
   axis XYZ
   position 0 0 0  
   orientation 0 0 0 
:bonedata
  begin
     id 1 
     name lhipjoint
     direction 0.528046 -0.759594 0.379717 
     length 2.39752 
     axis 0 0 0  XYZ
  end
  begin
     id 2 
     name lfemur
     direction 0.34202 -0.939693 0  
     length 7.31175  
     axis 0 0 20  XYZ
    dof rx ry rz
    limits (-160.0 20.0)
           (-70.0 70.0)
           (-60.0 70.0)
  end
  begin
     id 3 
     name ltibia
     direction 0.34202 -0.939693 0   
     length 7.52482   
     axis 0 0 20   XYZ
    dof rx
    limits (-10.0 170.0)
  end
  begin
     id 4 
     name lfoot
     direction 0.0675379 -0.185559 0.980309   
     length 2.00961   
     axis -90 7.62852e-016 20   XYZ
    dof rx rz
    limits (-45.0 90.0)
           (-70.0 20.0)
  end
  begin
     id 5 
     name ltoes
     direction 1.5352e-011 -4.22286e-011 1   
     length 1.01383   
     axis -90 7.62852e-016 20   XYZ
    dof rx
    limits (-90.0 20.0)
  end
  begin
     id 6 
     name rhipjoint
     direction -0.510274 -0.769251 0.384544   
     length 2.36742  
     axis 0 0 0  XYZ 
  end
  begin
     id 7 
     name rfemur
     direction -0.34202 -0.939693 0   
     length 7.45325   
     axis 0 0 -20   XYZ
    dof rx ry rz
    limits (-160.0 20.0)
           (-70.0 70.0)
           (-70.0 60.0)
  end
  begin
     id 8 
     name rtibia
     direction -0.34202 -0.939693 0   
     length 7.49587   
     axis 0 0 -20   XYZ
    dof rx
    limits (-10.0 170.0)
 end
 begin
     id 9 
     name rfoot
     direction -0.106475 -0.292536 0.950308   
     length 2.20898  
     axis -90 -7.62852e-016 -20   XYZ
    dof rx rz
    limits (-45.0 90.0)
           (-20.0 70.0)
  end
  begin
     id 10 
     name rtoes
     direction -1.53597e-011 -4.22023e-011 1   
     length 1.10065   
     axis -90 -7.62852e-016 -20   XYZ
    dof rx
    limits (-90.0 20.0)
  end
  begin
     id 11 
     name lowerback
     direction 0.0260024 0.998026 -0.0571652   
     length 2.11214   
     axis 0 0 0   XYZ
    dof rx ry rz
    limits (-20.0 45.0)
           (-30.0 30.0)
           (-30.0 30.0)
  end
  begin
     id 12 
     name upperback
     direction 0.0216202 0.999542 -0.0211766   
     length 2.11689   
     axis 0 0 0   XYZ
    dof rx ry rz
    limits (-20.0 45.0)
           (-30.0 30.0)
           (-30.0 30.0)
  end
  begin
     id 13 
     name thorax
     direction 0.00883312 0.999944 0.00589057   
     length 2.11821   
     axis 0 0 0   XYZ
    dof rx ry rz
    limits (-20.0 45.0)
           (-30.0 30.0)
           (-30.0 30.0)
  end
  begin
     id 14 
     name lowerneck
     direction -0.059386 0.994433 0.0870401   
     length 1.81176   
     axis 0 0 0   XYZ
    dof rx ry rz
    limits (-20.0 45.0)
           (-30.0 30.0)
           (-30.0 30.0)
  end
  begin
     id 15 
     name upperneck
     direction 0.0506457 0.97328 -0.223967   
     length 1.82382   
     axis 0 0 0   XYZ
    dof rx ry rz
    limits (-20.0 45.0)
           (-30.0 30.0)
           (-30.0 30.0)
  end
  begin
     id 16
     name head
     direction 0.0205902 0.996147 -0.0852487  
     length 1.84805  
     axis 0 0 0   XYZ
    dof rx ry rz
    limits (-20.0 45.0)
           (-30.0 30.0)
           (-30.0 30.0)
  end
  begin
     id 17 
     name lclavicle
     direction 0.949493 0.303881 -0.0782325  
     length 3.60584  
     axis 0 0 0   XYZ
    dof ry rz
    limits (-20.0 10.0)
           (0.0 20.0)
  end
  begin
     id 18 
     name lhumerus
     direction 1 -4.48965e-011 1.48782e-027   
     length 4.95681   
     axis 180 -30 -90   XYZ
    dof rx ry rz
    limits (-60.0 90.0)
           (-90.0 90.0)
           (-90.0 90.0)
  end
  begin
     id 19
     name lradius
     direction 1 -4.48952e-011 2.06528e-027   
     length 3.40915   
     axis 180 -30 -90   XYZ
    dof rx
    limits (-10.0 170.0)
  end
  begin
     id 20
     name lwrist
     direction 1 -4.48964e-011 1.28021e-027   
     length 1.70457   
     axis -1.61767e-015 90 90   XYZ
    dof ry
    limits (-180.0 0.0)
 end
  begin
     id 21 
     name lhand
     direction 1 -4.49094e-011 2.54887e-027   
     length 0.616403   
     axis -1.63363e-015 90 90   XYZ
    dof rx rz
    limits (-90.0 90.0)
           (-45.0 45.0)
  end
  begin
     id 22 
     name lfingers
     direction 1 -4.49002e-011 5.11407e-027   
     length 0.49696   
     axis -3.26723e-015 90 90   XYZ
    dof rx
    limits (0.0 90.0)
  end
  begin
     id 23
     name lthumb
     direction 0.707107 -6.34998e-011 0.707107   
     length 0.713539   
     axis -90 45 -2.25915e-014   XYZ
    dof rx rz
    limits (-45.0 45.0)
           (-45.0 45.0)
  end
  begin
     id 24 
     name rclavicle
     direction -0.937751 0.334612 -0.0930482   
     length 3.46287  
     axis 0 0 0   XYZ 
    dof ry rz
    limits (-10.0 20.0)
           (-20.0 0.0)
  end
  begin
     id 25 
     name rhumerus
     direction -1 -4.48962e-011 3.59972e-027  
     length 5.352   
     axis 180 30 90   XYZ
    dof rx ry rz
    limits (-90.0 60.0)
           (-90.0 90.0)
           (-90.0 90.0)
  end
  begin
     id 26 
     name rradius
     direction -1 -4.48987e-011 -3.76925e-027   
     length 3.43721   
     axis 180 30 90   XYZ
    dof rx
    limits (-10.0 170.0)
  end
  begin
     id 27 
     name rwrist
     direction -1 -4.48943e-011 1.28112e-027   
     length 1.7186   
     axis -1.61767e-015 -90 -90   XYZ
    dof ry
    limits (-180.0 0.0)
  end
  begin
     id 28
     name rhand
     direction -1 -4.49027e-011 2.55483e-027   
     length 0.72009   
     axis -1.63363e-015 -90 -90   XYZ
    dof rx rz
    limits (-90.0 90.0)
           (-45.0 45.0)
  end
  begin
     id 29
     name rfingers
     direction -1 -4.48827e-011 5.14506e-027   
     length 0.580555   
     axis -3.26723e-015 -90 -90   XYZ
    dof rx
    limits (0.0 90.0)
  end
  begin
     id 30
     name rthumb
     direction -0.707107 -6.34936e-011 0.707107   
     length 0.833564   
     axis -90 -45 2.25915e-014   XYZ
    dof rx rz
    limits (-45.0 45.0)
           (-45.0 45.0)
  end
:hierarchy
  begin
    root lhipjoint rhipjoint lowerback
    lhipjoint lfemur
    lfemur ltibia
    ltibia lfoot
    lfoot ltoes
    rhipjoint rfemur
    rfemur rtibia
    rtibia rfoot
    rfoot rtoes
    lowerback upperback
    upperback thorax
    thorax lowerneck lclavicle rclavicle
    lowerneck upperneck
    upperneck head
    lclavicle lhumerus
    lhumerus lradius
    lradius lwrist
    lwrist lhand lthumb
    lhand lfingers
    rclavicle rhumerus
    rhumerus rradius
    rradius rwrist
    rwrist rhand rthumb
    rhand rfingers
  end

#!OML:ASF H:\Terrain\Patient Classification 1\Terrain2\Thursday\justin.ASF
:FULLY-SPECIFIED
:DEGREES
260
root 1.50047 20.4642 12.1717 143.633 -87.0359 -143.097
lowerback 6.49013 -0.578303 1.97109
upperback 3.05299 -0.770428 4.39826
thorax -0.451307 -0.465015 3.48383
lowerneck -6.00938 -0.876194 -10.1899
upperneck 42.3133 -4.7117 5.86181
head 16.6703 -3.75436 3.51643
rclavicle 2.38542e-015 -3.65764e-014
rhumerus -38.5405 -14.4755 -64.7709
rradius 41.0365
rwrist -6.73741
rhand -23.5376 14.3523
rfingers 7.12502
rthumb 2.92397 -15.6074
lclavicle 2.38542e-015 -3.65764e-014
lhumerus -41.6824 10.4926 76.2576
lradius 34.2125
lwrist 2.90098
lhand -18.853 17.4901
lfingers 7.12502
lthumb 7.44702 47.339
rfemur -17.5197 -4.27484 23.0193
rtibia 41.1013
rfoot -21.1304 5.62214
rtoes 20.5824
lfemur -18.8281 -6.5813 -14.9224
ltibia 36.2361
lfoot -10.4367 -21.8943
ltoes 23.5535
261
root 1.47152 20.4733 12.1828 148.323 -86.8289 -147.679
lowerback 6.26769 -0.612367 1.66484
upperback 3.02993 -0.838388 4.38508
thorax -0.344788 -0.500171 3.64369
lowerneck -6.21077 -0.85114 -10.3378
upperneck 42.4507 -4.64446 5.85674
head 16.7961 -3.75906 3.55225
rclavicle 1.33186e-014 1.43125e-014
rhumerus -38.9123 -14.9563 -64.5183
rradius 40.297
rwrist -6.46564
rhand -23.0784 13.1966
rfingers 7.12502
rthumb 3.36738 -16.7566
lclavicle 1.33186e-014 1.43125e-014
lhumerus -41.426 10.0576 76.786
lradius 34.7954
lwrist 3.3061
lhand -18.2927 17.1138
lfingers 7.12502
lthumb 7.98782 46.9428
rfemur -17.5466 -4.2076 22.9157
rtibia 41.0796
rfoot -21.3287 5.55434
rtoes 19.1996
lfemur -18.7594 -6.55984 -15.0491
ltibia 36.2375
lfoot -10.7298 -21.595
ltoes 23.2833
262
root 1.44629 20.4689 12.2043 144.204 -86.2659 -143.645
lowerback 6.31829 -0.676458 2.17474
upperback 3.02826 -0.900393 4.47809
thorax -0.376592 -0.530506 3.45792
lowerneck -6.21857 -0.835166 -10.2486
upperneck 42.4434 -4.52636 5.55909
head 16.7675 -3.73608 3.41492
rclavicle -1.5704e-014 3.65764e-014
rhumerus -39.2418 -15.0395 -64.4307
rradius 39.5106
rwrist -6.54219
rhand -23.3436 12.5911
rfingers 7.12502
rthumb 3.11125 -17.366
lclavicle -1.5704e-014 3.65764e-014
lhumerus -41.202 9.6779 77.2156
lradius 35.2617
lwrist 3.66753
lhand -18.1017 16.8141
lfingers 7.12502
lthumb 8.17217 46.6361
rfemur -17.3289 -4.22614 23.3986
rtibia 40.9998
rfoot -21.3331 5.80393
rtoes 18.9011
lfemur -18.5123 -6.44453 -14.553
ltibia 36.2686
lfoot -10.9276 -21.4647
ltoes 23.5881
263
root 1.42383 20.4653 12.2277 141.954 -85.8428 -141.546
lowerback 6.49635 -0.728327 2.48179
upperback 3.0051 -0.947218 4.56186
thorax -0.499889 -0.554603 3.37911
lowerneck -6.10252 -0.821029 -10.1906
upperneck 42.3534 -4.46132 5.38867
head 16.6724 -3.72287 3.33308
rclavicle 5.76476e-015 1.27222e-014
rhumerus -39.5789 -14.8933 -64.3449
rradius 38.6382
rwrist -6.74026
rhand -23.8766 12.8909
rfingers 7.12502
rthumb 2.59653 -17.073
lclavicle 5.76476e-015 1.27222e-014
lhumerus -41.0423 9.29285 77.65
lradius 35.7532
lwrist 3.78771
lhand -17.9503 16.5062
lfingers 7.12502
lthumb 8.31826 46.3224
rfemur -16.9879 -4.26479 23.7105
rtibia 40.8689
rfoot -21.319 6.04628
rtoes 18.6804
lfemur -18.2466 -6.36615 -14.24
ltibia 36.3492
lfoot -11.003 -21.4276
ltoes 24.1577
264
root 1.40219 20.4666 12.2449 145.301 -85.7505 -144.935
lowerback 6.58269 -0.748788 2.21726
upperback 2.93439 -0.97604 4.47122
thorax -0.617735 -0.567688 3.43822
lowerneck -6.01884 -0.805544 -10.2143
upperneck 42.2926 -4.49168 5.49583
head 16.6239 -3.73071 3.37939
rclavicle 4.37326e-015 2.54444e-014
rhumerus -40.1333 -15 -64.2363
rradius 38.0573
rwrist -6.57068
rhand -23.7823 13.3479
rfingers 7.12502
rthumb 2.68756 -16.6149
lclavicle 4.37326e-015 2.54444e-014
lhumerus -40.9602 8.62858 78.0923
lradius 36.4414
lwrist 4.07919
lhand -17.9801 16.4453
lfingers 7.12502
lthumb 8.28956 46.2627
rfemur -16.8032 -4.27616 23.4832
rtibia 40.7072
rfoot -21.286 6.24538
rtoes 18.6185
lfemur -18.1443 -6.21693 -14.4748
ltibia 36.4756
lfoot -11.0966 -21.4726
ltoes 24.2838
265
root 1.37871 20.4665 12.252 149.341 -85.5653 -148.917
lowerback 6.52583 -0.78133 1.82222
upperback 2.87735 -1.03684 4.4067
thorax -0.637508 -0.597723 3.59744
lowerneck -6.06721 -0.761014 -10.2579
upperneck 42.2813 -4.43667 5.54588
head 16.6248 -3.71303 3.41637
rclavicle -2.98177e-015 2.94201e-014
rhumerus -40.6038 -14.9473 -64.2288
rradius 37.5444
rwrist -6.43348
rhand -23.3333 13.1557
rfingers 7.12502
rthumb 3.12125 -16.8012
lclavicle -2.98177e-015 2.94201e-014
lhumerus -40.8771 8.11905 78.4434
lradius 37.1278
lwrist 4.23048
lhand -18.0228 16.208
lfingers 7.12502
lthumb 8.24829 46.027
rfemur -16.7849 -3.83991 23.3009
rtibia 40.5971
rfoot -21.4189 6.08093
rtoes 18.2889
lfemur -18.1341 -5.846 -14.6597
ltibia 36.5605
lfoot -11.071 -21.6088
ltoes 24.7191
266
root 1.35264 20.4651 12.2442 147.706 -84.8682 -147.296
lowerback 6.49687 -0.711263 1.90549
upperback 2.88581 -0.945116 4.53044
thorax -0.615951 -0.554683 3.67255
lowerneck -6.22616 -0.73777 -10.372
upperneck 42.3866 -4.42406 5.65273
head 16.7293 -3.72094 3.48831
rclavicle -1.55052e-014 1.66979e-014
rhumerus -40.9117 -14.9022 -64.2074
rradius 36.6904
rwrist -6.21932
rhand -23.012 12.834
rfingers 7.12502
rthumb 3.4315 -17.1181
lclavicle -1.55052e-014 1.66979e-014
lhumerus -40.6928 7.80334 78.6895
lradius 37.7407
lwrist 4.02633
lhand -17.659 15.7645
lfingers 7.12502
lthumb 8.59944 45.5694
rfemur -16.6446 -2.85056 23.8992
rtibia 40.5013
rfoot -21.6451 5.5234
rtoes 17.8817
lfemur -18.0099 -5.28617 -14.083
ltibia 36.6393
lfoot -11.2751 -21.6623
ltoes 24.3208
267
root 1.33559 20.4661 12.29 148.191 -84.6129 -147.739
lowerback 6.6081 -0.772312 2.47369
upperback 2.79922 -0.980006 4.33708
thorax -0.777852 -0.56453 3.15642
lowerneck -6.39571 -0.729055 -10.5189
upperneck 42.5135 -4.47516 5.87074
head 16.8619 -3.74893 3.60873
rclavicle 2.44505e-014 -3.89618e-014
rhumerus -41.2182 -14.9706 -64.2206
rradius 35.8119
rwrist -5.97157
rhand -22.7935 12.9217
rfingers 7.12502
rthumb 3.64247 -17.0269
lclavicle 2.44505e-014 -3.89618e-014
lhumerus -40.6174 7.30093 79.0255
lradius 38.6346
lwrist 4.41309
lhand -17.959 15.9276
lfingers 7.12502
lthumb 8.30992 45.7442
rfemur -16.595 -3.33806 23.7886
rtibia 40.4049
rfoot -21.5074 6.43779
rtoes 18.9578
lfemur -17.9938 -4.84589 -14.1361
ltibia 36.7523
lfoot -11.6889 -21.8247
ltoes 23.3538
268
root 1.31505 20.4706 12.3179 149.904 -84.3498 -149.381
lowerback 6.5961 -0.825513 2.60653
upperback 2.76434 -1.03915 4.21552
thorax -0.809701 -0.590828 2.9596
lowerneck -6.54743 -0.692183 -10.5295
upperneck 42.5563 -4.42105 5.90224
head 16.9183 -3.72812 3.63283
rclavicle -5.76476e-015 -3.97569e-015
rhumerus -41.3773 -14.9972 -64.3369
rradius 34.917
rwrist -5.85717
rhand -22.6548 13.2608
rfingers 7.12502
rthumb 3.77643 -16.6855
lclavicle -5.76476e-015 -3.97569e-015
lhumerus -40.5208 6.80704 79.4518
lradius 39.5492
lwrist 5.16462
lhand -19.0405 16.3012
lfingers 7.12502
lthumb 7.2661 46.1565
rfemur -16.597 -3.54704 23.6371
rtibia 40.3232
rfoot -21.2634 7.16696
rtoes 20.4394
lfemur -18.0104 -4.51049 -14.2351
ltibia 36.8858
lfoot -12.0655 -21.9317
ltoes 22.6065
269
root 1.29423 20.4708 12.3402 150.204 -83.9157 -149.564
lowerback 6.49821 -0.845889 2.69822
upperback 2.76833 -1.0693 4.29055
thorax -0.750043 -0.607219 2.98605
lowerneck -6.70773 -0.64717 -10.5806
upperneck 42.5744 -4.29301 5.83165
head 16.9523 -3.69183 3.62839
rclavicle 1.82882e-014 -5.00937e-014
rhumerus -41.3945 -14.9466 -64.3152
rradius 33.9697
rwrist -5.54498
rhand -22.1445 13.6064
rfingers 7.12502
rthumb 4.26921 -16.3306
lclavicle 1.82882e-014 -5.00937e-014
lhumerus -40.3252 6.69403 79.7835
lradius 40.2727
lwrist 5.30761
lhand -19.4927 16.4929
lfingers 7.12502
lthumb 6.82953 46.3628
rfemur -16.6689 -3.70555 23.7474
rtibia 40.3122
rfoot -21.17 7.74903
rtoes 21.1059
lfemur -18.029 -4.33902 -14.0683
ltibia 36.9689
lfoot -12.2969 -21.8308
ltoes 22.2032
